<?xml version="1.0" encoding="UTF-8"?>
<svg id="Layer_1" data-name="Layer 1" xmlns="http://www.w3.org/2000/svg" viewBox="0 0 1681.61 261.85">
  <defs>
    <style>
      .cls-1 {
        fill: #432d26;
      }
    </style>
  </defs>
  <path class="cls-1" d="M1647.7,188h-32.84v-98.91h-20.34v-12.98h20.34v-41.17h32.84v41.17h33.91v12.98h-33.91v98.91ZM1598.72,152.25c0,4.91-.71,9.27-2.13,13.08-1.42,3.81-3.36,7.14-5.81,9.98-2.45,2.78-5.36,5.13-8.72,7.07-3.36,1.87-6.97,3.39-10.85,4.55-3.81,1.16-7.81,2-12.01,2.52-4.2.52-8.36.78-12.5.78-5.55,0-10.46-.36-14.73-1.07-4.26-.71-8.33-1.84-12.21-3.39-3.88-1.61-7.75-3.68-11.63-6.2-3.81-2.52-8.07-5.59-12.79-9.2l19.08-15.6c1.74,3.29,4.04,6.3,6.88,9.01,2.91,2.65,5.91,4.94,9.01,6.88,3.1,1.94,6.1,3.42,9.01,4.46,2.91,1.03,5.26,1.55,7.07,1.55,1.49,0,3.16-.03,5.04-.1,1.87-.13,3.78-.32,5.72-.58,1.94-.32,3.84-.78,5.72-1.36,1.87-.58,3.52-1.36,4.94-2.33,1.49-1.03,2.65-2.29,3.49-3.78.9-1.55,1.36-3.39,1.36-5.52s-.58-4.1-1.74-5.72c-1.1-1.68-2.55-3.13-4.36-4.36-1.81-1.23-3.88-2.26-6.2-3.1s-4.68-1.58-7.07-2.23c-2.32-.65-4.59-1.19-6.78-1.65-2.2-.52-4.1-1-5.72-1.45-2.97-.84-6.1-1.68-9.4-2.52-3.29-.9-6.56-1.91-9.78-3-3.23-1.16-6.33-2.52-9.3-4.07-2.91-1.55-5.49-3.39-7.75-5.52-2.2-2.2-3.97-4.75-5.33-7.65-1.29-2.97-1.94-6.43-1.94-10.37,0-7.23,1.42-13.27,4.26-18.12,2.91-4.91,6.72-8.82,11.43-11.72,4.71-2.97,10.08-5.07,16.08-6.3,6.01-1.23,12.11-1.84,18.31-1.84,4.26,0,8.75.45,13.47,1.36,4.71.84,9.3,2.13,13.76,3.88,4.46,1.68,8.62,3.75,12.5,6.2,3.88,2.45,7.1,5.26,9.69,8.43l-19.08,15.69c-1.42-3.88-3.29-7.2-5.62-9.98-2.26-2.78-4.75-5.04-7.46-6.78-2.65-1.81-5.39-3.13-8.23-3.97-2.78-.84-5.36-1.26-7.75-1.26s-4.94.1-7.85.29-5.65.74-8.23,1.65c-2.52.9-4.68,2.29-6.49,4.17-1.74,1.81-2.62,4.33-2.62,7.56,0,2.33.52,4.33,1.55,6.01,1.1,1.61,2.52,3.04,4.26,4.26,1.74,1.16,3.71,2.16,5.91,3,2.26.78,4.55,1.49,6.88,2.13,2.33.58,4.59,1.1,6.78,1.55s4.17.94,5.91,1.45c2.97.84,6.1,1.71,9.4,2.62,3.36.84,6.65,1.84,9.88,3,3.23,1.1,6.33,2.42,9.3,3.97,3.04,1.49,5.68,3.33,7.94,5.52,2.26,2.2,4.07,4.78,5.43,7.75,1.36,2.91,2.03,6.36,2.03,10.37ZM1495.87,112.82c0,4.59-.74,8.69-2.23,12.3-1.49,3.55-3.52,6.68-6.1,9.4-2.52,2.71-5.46,5.01-8.82,6.88s-6.94,3.42-10.75,4.65c-3.81,1.16-7.75,2-11.82,2.52-4,.52-7.91.78-11.72.78-4.84,0-9.62-.32-14.34-.97-4.71-.71-9.36-1.81-13.95-3.29.71,4.26,1.84,8.33,3.39,12.21,1.55,3.81,3.62,7.17,6.2,10.08,2.58,2.84,5.75,5.1,9.49,6.78,3.81,1.68,8.3,2.52,13.47,2.52,3.42,0,6.68-.52,9.78-1.55,3.1-1.03,5.94-2.49,8.53-4.36,2.58-1.87,4.84-4.1,6.78-6.68,2-2.58,3.62-5.46,4.84-8.62l14.14,5.23c-2.13,5.1-5.07,9.53-8.82,13.27-3.68,3.68-7.88,6.75-12.59,9.2-4.65,2.39-9.62,4.17-14.92,5.33-5.23,1.16-10.43,1.74-15.6,1.74-8.53,0-16.4-1.42-23.64-4.26-7.23-2.91-13.47-6.94-18.7-12.11s-9.33-11.33-12.3-18.5-4.46-15.02-4.46-23.54,1.49-16.37,4.46-23.54c2.97-7.17,7.07-13.34,12.3-18.5s11.46-9.17,18.7-12.01c7.23-2.91,15.11-4.36,23.64-4.36,4.13,0,8.36.29,12.69.87s8.53,1.52,12.59,2.81c4.07,1.23,7.91,2.84,11.53,4.84s6.75,4.49,9.4,7.46c2.71,2.91,4.84,6.3,6.39,10.17,1.61,3.88,2.42,8.3,2.42,13.27ZM1415.17,134.91c4,.9,8.01,1.61,12.01,2.13,4,.52,8.04.78,12.11.78s8.2-.39,11.82-1.16c3.68-.84,6.85-2.2,9.49-4.07,2.71-1.94,4.84-4.49,6.39-7.65,1.55-3.16,2.33-7.1,2.33-11.82,0-3.81-.52-7.3-1.55-10.46s-2.58-5.88-4.65-8.14c-2-2.26-4.49-4-7.46-5.23-2.97-1.29-6.43-1.94-10.37-1.94-3.68,0-7.01.68-9.98,2.03-2.91,1.36-5.49,3.2-7.75,5.52-2.2,2.26-4.1,4.91-5.72,7.94-1.55,3.04-2.84,6.2-3.87,9.49-1.03,3.29-1.78,6.62-2.23,9.98-.45,3.36-.68,6.52-.68,9.49v1.55c0,.52.03,1.03.1,1.55ZM1260.4,140.14c0-5.1.42-10.4,1.26-15.89.9-5.49,2.16-10.98,3.78-16.47,1.68-5.49,3.68-10.91,6.01-16.28s4.94-10.49,7.85-15.4h23.93c-1.61,4.84-3.07,9.91-4.36,15.21-1.23,5.23-2.29,10.49-3.2,15.79-.84,5.23-1.52,10.37-2.03,15.4-.45,5.04-.68,9.72-.68,14.05,0,2.52.1,5.23.29,8.14.26,2.84.68,5.72,1.26,8.62.58,2.84,1.39,5.59,2.42,8.23,1.1,2.65,2.49,5.01,4.17,7.07,1.68,2,3.71,3.62,6.1,4.84,2.45,1.16,5.33,1.74,8.62,1.74s6.1-.71,8.62-2.13c2.58-1.49,4.84-3.39,6.78-5.72,1.94-2.39,3.58-5.1,4.94-8.14s2.45-6.14,3.29-9.3c.9-3.23,1.55-6.36,1.94-9.4.45-3.1.68-5.88.68-8.33v-56.09h32.74v111.89h-12.59l-15.02-26.06c-1.87,4.33-4.17,8.27-6.88,11.82-2.65,3.49-5.68,6.49-9.11,9.01s-7.23,4.46-11.43,5.81c-4.13,1.36-8.62,2.03-13.47,2.03-7.75,0-14.5-1.26-20.25-3.78-5.75-2.52-10.53-6.01-14.34-10.46-3.81-4.46-6.65-9.75-8.53-15.89-1.87-6.2-2.81-12.98-2.81-20.34ZM1220.04,118.05c0-4.26-.19-8.62-.58-13.08-.39-4.46-1.1-8.78-2.13-12.98-1.03-4.2-2.45-8.14-4.26-11.82-1.74-3.68-4-6.88-6.78-9.59-2.78-2.78-6.14-4.94-10.08-6.49-3.88-1.61-8.43-2.42-13.66-2.42s-9.91.81-13.85,2.42c-3.94,1.55-7.3,3.68-10.08,6.39s-5.04,5.91-6.78,9.59c-1.74,3.68-3.13,7.62-4.17,11.82-.97,4.13-1.65,8.46-2.03,12.98-.39,4.46-.58,8.85-.58,13.18s.19,8.62.58,13.08c.39,4.46,1.1,8.78,2.13,12.98,1.03,4.13,2.42,8.04,4.17,11.72,1.81,3.68,4.1,6.91,6.88,9.69,2.78,2.71,6.1,4.88,9.98,6.49,3.94,1.61,8.53,2.42,13.76,2.42s9.56-.81,13.37-2.42c3.81-1.68,7.1-3.91,9.88-6.68,2.78-2.84,5.07-6.1,6.88-9.78,1.87-3.75,3.33-7.69,4.36-11.82,1.1-4.2,1.87-8.49,2.33-12.88s.68-8.65.68-12.79ZM1253.75,225.2l-36.43,19.96c-3.94-3.36-7.85-7.17-11.72-11.43-3.81-4.2-7.43-8.65-10.85-13.37-3.42-4.71-6.56-9.59-9.4-14.63-2.84-5.04-5.2-10.04-7.07-15.02-10.4-.45-20.02-2.42-28.87-5.91-8.85-3.55-16.5-8.46-22.96-14.73-6.39-6.26-11.43-13.76-15.11-22.48-3.62-8.78-5.43-18.63-5.43-29.55s1.91-21.64,5.72-30.61c3.87-9.04,9.2-16.66,15.98-22.86,6.85-6.26,14.95-11.04,24.32-14.34,9.36-3.36,19.57-5.04,30.61-5.04s21.25,1.68,30.61,5.04c9.36,3.29,17.44,8.07,24.22,14.34,6.85,6.2,12.17,13.82,15.98,22.86,3.88,8.98,5.81,19.18,5.81,30.61,0,9.62-1.42,18.41-4.26,26.35-2.84,7.94-6.85,14.95-12.01,21.02-5.1,6.07-11.21,11.11-18.31,15.11-7.1,4-14.92,6.85-23.44,8.53,3.62,3.81,7.56,7.49,11.82,11.04,4.26,3.55,8.65,6.88,13.18,9.98,4.59,3.1,9.2,5.91,13.85,8.43,4.71,2.58,9.3,4.81,13.76,6.68ZM1033.72,188h-32.84v-98.91h-20.34v-12.98h20.34v-41.17h32.84v41.17h33.91v12.98h-33.91v98.91ZM984.73,152.25c0,4.91-.71,9.27-2.13,13.08s-3.36,7.14-5.81,9.98c-2.45,2.78-5.36,5.13-8.72,7.07-3.36,1.87-6.97,3.39-10.85,4.55-3.81,1.16-7.81,2-12.01,2.52-4.2.52-8.36.78-12.5.78-5.55,0-10.46-.36-14.73-1.07-4.26-.71-8.33-1.84-12.21-3.39-3.87-1.61-7.75-3.68-11.63-6.2-3.81-2.52-8.07-5.59-12.79-9.2l19.08-15.6c1.74,3.29,4.04,6.3,6.88,9.01,2.91,2.65,5.91,4.94,9.01,6.88,3.1,1.94,6.1,3.42,9.01,4.46,2.91,1.03,5.26,1.55,7.07,1.55,1.49,0,3.16-.03,5.04-.1,1.87-.13,3.78-.32,5.72-.58,1.94-.32,3.84-.78,5.72-1.36,1.87-.58,3.52-1.36,4.94-2.33,1.49-1.03,2.65-2.29,3.49-3.78.9-1.55,1.36-3.39,1.36-5.52s-.58-4.1-1.74-5.72c-1.1-1.68-2.55-3.13-4.36-4.36s-3.88-2.26-6.2-3.1c-2.33-.84-4.68-1.58-7.07-2.23-2.33-.65-4.59-1.19-6.78-1.65-2.2-.52-4.1-1-5.72-1.45-2.97-.84-6.1-1.68-9.4-2.52-3.29-.9-6.56-1.91-9.78-3-3.23-1.16-6.33-2.52-9.3-4.07-2.91-1.55-5.49-3.39-7.75-5.52-2.2-2.2-3.97-4.75-5.33-7.65-1.29-2.97-1.94-6.43-1.94-10.37,0-7.23,1.42-13.27,4.26-18.12,2.91-4.91,6.72-8.82,11.43-11.72,4.71-2.97,10.08-5.07,16.08-6.3,6.01-1.23,12.11-1.84,18.31-1.84,4.26,0,8.75.45,13.47,1.36,4.71.84,9.3,2.13,13.76,3.88,4.46,1.68,8.62,3.75,12.5,6.2,3.87,2.45,7.1,5.26,9.69,8.43l-19.08,15.69c-1.42-3.88-3.29-7.2-5.62-9.98-2.26-2.78-4.75-5.04-7.46-6.78-2.65-1.81-5.39-3.13-8.23-3.97-2.78-.84-5.36-1.26-7.75-1.26s-4.94.1-7.85.29-5.65.74-8.23,1.65c-2.52.9-4.68,2.29-6.49,4.17-1.74,1.81-2.62,4.33-2.62,7.56,0,2.33.52,4.33,1.55,6.01,1.1,1.61,2.52,3.04,4.26,4.26,1.74,1.16,3.71,2.16,5.91,3,2.26.78,4.55,1.49,6.88,2.13,2.33.58,4.59,1.1,6.78,1.55,2.2.45,4.17.94,5.91,1.45,2.97.84,6.1,1.71,9.4,2.62,3.36.84,6.65,1.84,9.88,3,3.23,1.1,6.33,2.42,9.3,3.97,3.04,1.49,5.68,3.33,7.94,5.52,2.26,2.2,4.07,4.78,5.43,7.75,1.36,2.91,2.03,6.36,2.03,10.37ZM841.97,131.81c0-2.91-.16-5.97-.48-9.2-.26-3.23-.74-6.43-1.45-9.59-.71-3.16-1.71-6.17-3-9.01-1.23-2.91-2.84-5.46-4.84-7.65-1.94-2.26-4.29-4.04-7.07-5.33s-6.01-1.94-9.69-1.94-6.88.68-9.59,2.03c-2.71,1.29-5.04,3.07-6.98,5.33-1.94,2.2-3.55,4.75-4.84,7.65-1.23,2.91-2.2,5.94-2.91,9.11-.71,3.16-1.23,6.36-1.55,9.59-.26,3.16-.39,6.17-.39,9.01s.13,5.88.39,9.11c.32,3.23.84,6.43,1.55,9.59.71,3.16,1.68,6.2,2.91,9.11,1.29,2.91,2.91,5.49,4.84,7.75,1.94,2.2,4.26,3.97,6.98,5.33,2.71,1.29,5.91,1.94,9.59,1.94,3.36,0,6.33-.68,8.91-2.03,2.65-1.42,4.94-3.29,6.88-5.62,2-2.33,3.68-4.97,5.04-7.94,1.36-2.97,2.45-6.04,3.29-9.2.84-3.16,1.45-6.3,1.84-9.4.39-3.16.58-6.04.58-8.62ZM874.91,188h-32.74v-13.37c-3.88,5.3-8.56,9.24-14.05,11.82-5.43,2.52-11.4,3.78-17.92,3.78-8.53,0-16.15-1.52-22.86-4.55-6.72-3.04-12.4-7.17-17.05-12.4-4.65-5.3-8.2-11.5-10.66-18.6-2.45-7.1-3.68-14.73-3.68-22.86s1.23-15.76,3.68-22.86,6.01-13.27,10.66-18.5c4.65-5.3,10.33-9.46,17.05-12.5,6.72-3.04,14.34-4.55,22.86-4.55,4.33,0,8.43.65,12.3,1.94,3.94,1.29,7.52,3.13,10.75,5.52,3.29,2.33,6.17,5.17,8.62,8.53,2.52,3.29,4.49,6.98,5.91,11.04l14.53-24.32h12.59v111.89ZM722.08,131.81c0-3.1-.19-6.36-.58-9.78-.32-3.49-.9-6.88-1.74-10.17-.84-3.36-2-6.56-3.49-9.59-1.42-3.1-3.2-5.78-5.33-8.04-2.13-2.33-4.68-4.17-7.65-5.52-2.97-1.42-6.43-2.13-10.37-2.13s-7.07.71-9.98,2.13-5.46,3.33-7.65,5.72c-2.13,2.33-3.94,5.04-5.43,8.14-1.42,3.1-2.58,6.33-3.49,9.69-.9,3.29-1.55,6.65-1.94,10.08-.39,3.36-.58,6.52-.58,9.49s.19,6.17.58,9.59c.39,3.36,1.03,6.72,1.94,10.08s2.07,6.59,3.49,9.69c1.49,3.04,3.29,5.75,5.43,8.14,2.2,2.33,4.75,4.2,7.65,5.62s6.23,2.13,9.98,2.13,7.3-.68,10.27-2.03c2.97-1.42,5.52-3.29,7.65-5.62,2.2-2.33,4-5.01,5.43-8.04s2.55-6.23,3.39-9.59c.9-3.36,1.52-6.75,1.84-10.17.39-3.42.58-6.68.58-9.78ZM755.4,131.81c0,5.81-.77,11.27-2.33,16.37-1.55,5.1-3.71,9.82-6.49,14.14-2.71,4.33-6.01,8.23-9.88,11.72-3.88,3.42-8.14,6.33-12.79,8.72-4.59,2.39-9.53,4.23-14.82,5.52-5.23,1.29-10.62,1.94-16.18,1.94s-10.95-.65-16.18-1.94c-5.23-1.29-10.17-3.13-14.82-5.52-4.59-2.39-8.82-5.3-12.69-8.72-3.88-3.49-7.2-7.39-9.98-11.72-2.71-4.33-4.84-9.04-6.39-14.14-1.55-5.17-2.32-10.62-2.32-16.37s.77-11.17,2.32-16.28c1.55-5.17,3.68-9.91,6.39-14.24,2.78-4.33,6.1-8.2,9.98-11.63,3.88-3.49,8.11-6.43,12.69-8.82,4.65-2.39,9.59-4.23,14.82-5.52,5.23-1.29,10.62-1.94,16.18-1.94s10.95.65,16.18,1.94c5.3,1.29,10.24,3.13,14.82,5.52,4.65,2.39,8.91,5.33,12.79,8.82,3.87,3.42,7.17,7.3,9.88,11.63,2.78,4.33,4.94,9.07,6.49,14.24,1.55,5.1,2.33,10.53,2.33,16.28ZM630.76,83.08l-16.57,6.98c-1.29-4.2-3.04-8.04-5.23-11.53-2.13-3.49-4.71-6.46-7.75-8.91-2.97-2.52-6.36-4.46-10.17-5.81-3.81-1.42-7.98-2.13-12.5-2.13-4.84,0-9.3.81-13.37,2.42-4,1.55-7.62,3.71-10.85,6.49-3.16,2.78-5.94,6.01-8.33,9.69-2.39,3.68-4.39,7.62-6.01,11.82-1.61,4.13-2.81,8.43-3.58,12.88-.78,4.46-1.16,8.82-1.16,13.08,0,6.78.77,13.53,2.33,20.25,1.61,6.72,4.13,12.76,7.56,18.12,3.49,5.36,7.98,9.72,13.47,13.08,5.49,3.29,12.14,4.94,19.96,4.94,4.13,0,8.04-.68,11.72-2.03,3.68-1.42,7.01-3.33,9.98-5.72,3.04-2.45,5.68-5.33,7.94-8.62,2.26-3.29,4.07-6.85,5.43-10.66l16.76,6.68c-2.45,6.14-5.81,11.53-10.08,16.18-4.26,4.59-9.14,8.4-14.63,11.43-5.43,3.04-11.27,5.3-17.53,6.78-6.2,1.55-12.46,2.33-18.79,2.33-6.85,0-13.43-.84-19.76-2.52-6.26-1.68-12.11-4.07-17.53-7.17-5.43-3.1-10.37-6.85-14.82-11.24-4.39-4.39-8.17-9.27-11.33-14.63-3.1-5.36-5.52-11.17-7.27-17.44-1.68-6.33-2.52-12.92-2.52-19.76s.84-13.4,2.52-19.67c1.74-6.33,4.17-12.17,7.27-17.53,3.16-5.43,6.94-10.33,11.33-14.73,4.46-4.39,9.4-8.14,14.82-11.24,5.43-3.1,11.27-5.49,17.53-7.17,6.33-1.68,12.92-2.52,19.76-2.52s13.01.78,19.28,2.33c6.33,1.55,12.21,3.91,17.63,7.07,5.43,3.1,10.24,7.04,14.43,11.82,4.26,4.71,7.62,10.27,10.08,16.66Z"/>
  <path class="cls-1" d="M357.38,55.26l-44.9-30.01-33.68,5.61-20.08,59.8h-32.6v-57.64L176.7,0l-60.23,25.26-75.99,124.77L0,177.02l29.04,50.3,136.22-57.64,20.94-14.68,17.49,14.68-33.46,27.2,29.14,64.98,106.93-64.98,62.34-17.06,10.56-58.5-21.8-66.06ZM193.93,105.03c-13.87,5.21-31.8-8.37-40.05-30.34-8.25-21.97-3.7-44,10.17-49.21,13.87-5.21,31.8,8.37,40.05,30.34,8.25,21.97,3.7,44-10.17,49.21ZM340.83,155.96c-17,6.39-38.98-10.26-49.1-37.19-10.12-26.93-4.54-53.94,12.46-60.32s38.98,10.26,49.1,37.19c10.12,26.93,4.54,53.94-12.46,60.32Z"/>
</svg>